<?xml version="1.0" encoding="UTF-8" standalone="no"?>
<!-- Created with Inkscape (http://www.inkscape.org/) -->

<svg
   xmlns:dc="http://purl.org/dc/elements/1.1/"
   xmlns:cc="http://creativecommons.org/ns#"
   xmlns:rdf="http://www.w3.org/1999/02/22-rdf-syntax-ns#"
   xmlns:svg="http://www.w3.org/2000/svg"
   xmlns="http://www.w3.org/2000/svg"
   version="1.1"
   width="640"
   height="351.91043"
   id="svg3039">
  <metadata
     id="metadata3045">
    <rdf:RDF>
      <cc:Work
         rdf:about="">
        <dc:format>image/svg+xml</dc:format>
        <dc:type
           rdf:resource="http://purl.org/dc/dcmitype/StillImage" />
        <dc:title></dc:title>
      </cc:Work>
    </rdf:RDF>
  </metadata>
  <defs
     id="defs3043" />
  <g
     transform="translate(-10.09375,300.78545)"
     id="layer3"
     style="display:inline">
    <g
       transform="matrix(0.83333333,0,0,0.83333333,67.515626,-38.896904)"
       id="g3000">
      <path
         d="m 12.116531,102.01226 0,46.84302 41.853916,0 0,132.76825 52.386583,0 0,-132.76825 80.38155,0 10.80992,-46.84302 -185.431969,0 z m 232.552259,0 -10.80991,46.84302 287.15626,0 0,-46.84302 -276.34635,0 z"
         transform="translate(10.09375,-300.78545)"
         id="rect3049"
         style="opacity:0;fill:#0000ff;fill-rule:evenodd;stroke:#000000;stroke-width:0;stroke-linecap:butt;stroke-linejoin:miter;stroke-miterlimit:4;stroke-opacity:1;stroke-dasharray:none" />
      <path
         d="m 9.6901436,355.19501 33.4779244,0 0,14.07043 -33.4779244,0 z"
         transform="translate(10.09375,-300.78545)"
         id="rect3841"
         style="opacity:0;stroke-width:0;stroke-miterlimit:4" />
      <path
         d="m 5,354.30551 0.4043228,0 0,0.48519 -0.4043228,0 z"
         transform="translate(10.09375,-300.78545)"
         id="rect3843"
         style="opacity:0;stroke-width:0;stroke-miterlimit:4" />
      <path
         d="m 5,354.79068 8.086455,0 0,4.52842 -8.086455,0 z"
         transform="translate(10.09375,-300.78545)"
         id="rect3845"
         style="opacity:0;stroke-width:0;stroke-miterlimit:4" />
      <path
         d="m 529.44577,-200.43629 c -8.86943,0 -17.45451,1.25719 -25.50035,3.60328 l -205.38879,0 0,43.79416 151.06197,0 -3.04897,12.75017 c -0.57011,2.06867 -0.99263,4.24608 -1.3859,6.37512 l -19.67961,85.0936 -1.66311,7.760965 -2.77174,11.918598 44.07127,0 25.22322,-105.604763 c 4.62702,-17.12795 20.82953,-29.93513 40.19081,-29.93513 22.9639,0 41.57665,17.98856 41.57665,39.91357 0,1.95604 -0.26142,3.68243 -0.55427,5.54357 l 0.27735,0 -16.63067,72.066222 -1.66307,7.761007 -2.49461,10.255524 44.34849,0 16.90779,-70.957463 0.55428,-1.9403 -0.27735,0 c 1.50206,-5.90546 2.49459,-11.93781 2.49459,-18.29371 0,-44.12901 -38.34409,-80.10442 -85.64801,-80.10442 z m -509.175724,3.60328 0,42.68545 44.625622,0 0,125.007163 52.386622,0 0,-125.007163 106.99066,0 0,-42.68545 -204.002904,0 z"
         id="rect3884"
         style="fill:#000000;stroke-width:0;stroke-miterlimit:4;stroke-dasharray:none" />
      <g
         transform="matrix(8.8696895,0,0,8.8696895,-69.258411,-401.11306)"
         id="g3759">
        <path
           d="m 32.59375,14.25 -5.96875,25.84375 -0.1875,0.875 -0.25,0.96875 5.34375,0 0.40625,-1.75 1.625,-7 14.125,17.9375 0.1875,-0.0625 3.09375,-3.71875 L 38.09375,31 48.125,23.03125 l -8.53125,0 -4.53125,3.59375 2.84375,-12.375 -0.1875,0 z"
           id="rect3822"
           style="fill:#a2cd00;fill-opacity:1;stroke-width:0;stroke-miterlimit:4;stroke-dasharray:none" />
        <path
           d="m 41.290894,23.031 6.834106,0 0,4.938 -6.834106,0 z"
           id="rect2988"
           style="fill:#a2cd00;fill-opacity:1;stroke:none" />
      </g>
      <g
         transform="scale(1.1780439,0.8488648)"
         id="text3000"
         style="font-size:47.3721962px;font-style:normal;font-variant:normal;font-weight:normal;font-stretch:normal;text-align:start;line-height:125%;letter-spacing:0px;word-spacing:0px;writing-mode:lr-tb;text-anchor:start;fill:#000000;fill-opacity:1;stroke:none;font-family:Padauk Book;-inkscape-font-specification:'Padauk Book,'">
        <path
           d="m 64.038897,-17.777413 0,25.7678839 -4.811239,0 0,-25.7678839 -9.391168,0 0,-3.978524 23.639837,0 0,3.978524 -9.43743,0"
           id="path3002" />
        <path
           d="M 94.571758,7.9904709 C 94.355849,7.1269161 94.186223,6.3867263 94.062877,5.7698992 93.939493,5.1530766 93.831548,4.5979342 93.739044,4.1044704 93.677342,3.5801732 93.600239,3.0712927 93.507734,2.5778274 93.446033,2.0843729 93.353509,1.5138099 93.230163,0.86613669 92.983414,-0.42918838 92.721264,-1.46237 92.44371,-2.2334113 92.166121,-3.0044321 91.780606,-3.5904158 91.287163,-3.9913639 90.824527,-4.4231293 90.223123,-4.7007005 89.482948,-4.8240783 88.742743,-4.9782717 87.786665,-5.0553748 86.61471,-5.0553878 l -4.163572,0 0,13.0458587 -4.764977,0 0,-29.7464079 10.085096,0 c 3.639254,2.9e-5 6.368704,0.616854 8.188359,1.850476 1.850453,1.233678 2.77569,3.315461 2.775714,6.245358 -2.4e-5,0.801894 -0.169651,1.542084 -0.508881,2.220572 -0.308436,0.678526 -0.740213,1.295351 -1.295333,1.850476 -0.524324,0.5243187 -1.141149,1.0023579 -1.850477,1.4341192 -0.678528,0.4317935 -1.387876,0.8018884 -2.128048,1.1102858 0.894378,0.2159038 1.68083,0.5397368 2.359358,0.9715001 0.709328,0.4317915 1.26447,1.1411401 1.665429,2.1280479 0.246707,0.6168368 0.431754,1.4032885 0.555142,2.3593574 0.154184,0.9252469 0.30839,1.94300791 0.46262,3.0532861 0.154182,1.07945 0.33923,2.1897348 0.555143,3.3308576 0.215864,1.1411291 0.524277,2.205152 0.925238,3.1920718 l -4.903763,0 M 93.924091,-13.33627 c -1.9e-5,-0.832692 -0.169646,-1.52662 -0.508881,-2.081786 -0.308431,-0.555119 -0.740208,-1.002317 -1.295333,-1.341595 -0.55516,-0.37007 -1.218247,-0.632221 -1.989262,-0.786453 -0.740206,-0.15418 -1.542078,-0.231283 -2.40562,-0.231309 l -5.273857,0 0,8.7897628 5.135072,0 c 0.863541,1.7e-5 1.680834,-0.077086 2.451881,-0.2313096 0.771016,-0.1850302 1.434102,-0.4471808 1.989262,-0.7864522 0.585966,-0.339236 1.048585,-0.786434 1.387857,-1.341596 0.339235,-0.555123 0.508862,-1.218209 0.508881,-1.989262"
           id="path3004" />
        <path
           d="m 126.07612,7.9904709 -3.00703,-7.40190567 -13.64726,0 -2.9145,7.40190567 -4.81124,0 11.98184,-29.7464079 5.08881,0 12.16688,29.7464079 -4.8575,0 m -9.90005,-24.4262889 -5.08881,13.1383828 10.27014,0 -5.18133,-13.1383828"
           id="path3006" />
        <path
           d="m 151.89026,7.9904709 -12.58324,-24.1487169 0,24.1487169 -4.62619,0 0,-29.7464079 6.75424,0 12.58324,24.1949786 0,-24.1949786 4.71872,0 0,29.7464079 -6.84677,0"
           id="path3008" />
        <path
           d="m 187.04932,-0.38293489 c -3e-5,1.66543549 -0.38554,3.08413269 -1.15655,4.25609579 -0.74021,1.1411301 -1.69629,2.0663673 -2.86824,2.7757146 -1.17199,0.6785087 -2.48274,1.1719686 -3.93226,1.4803811 -1.44956,0.3084123 -2.86825,0.4626185 -4.2561,0.4626191 -1.44955,-6e-7 -2.82198,-0.2158893 -4.11731,-0.6476667 -1.2645,-0.4317774 -2.37478,-1.0640229 -3.33085,-1.8967383 -0.95609,-0.8327117 -1.7117,-1.835052 -2.26684,-3.0070242 -0.55514,-1.2028035 -0.83271,-2.55981822 -0.83271,-4.0710481 l 4.90376,0 c 0.0308,1.69627734 0.55514,3.053292 1.5729,4.0710481 1.0486,1.0177659 2.40561,1.5266464 4.07105,1.526643 0.77102,3.4e-6 1.58831,-0.046258 2.45188,-0.1387857 0.89438,-0.1233614 1.71168,-0.3392501 2.45189,-0.6476668 0.74017,-0.3392494 1.35699,-0.8018681 1.85047,-1.3878573 0.49344,-0.585978 0.74017,-1.3724297 0.74019,-2.35935739 -2e-5,-1.04859431 -0.24675,-1.88130781 -0.74019,-2.49814321 -0.49348,-0.6476556 -1.15656,-1.1565361 -1.98926,-1.526643 -0.83273,-0.4009242 -1.77339,-0.7093366 -2.82198,-0.9252382 -1.04861,-0.2158758 -2.11264,-0.4317645 -3.19207,-0.6476667 -1.07945,-0.2467164 -2.14348,-0.5397082 -3.19207,-0.8789763 -1.04861,-0.3392393 -1.98927,-0.8018579 -2.82198,-1.3878574 -0.83272,-0.616809 -1.4958,-1.4032607 -1.98926,-2.3593575 -0.49346,-0.95606 -0.74019,-2.174289 -0.74019,-3.654691 0,-1.356993 0.32383,-2.559801 0.9715,-3.608429 0.64766,-1.048577 1.48038,-1.927552 2.49814,-2.636929 1.01776,-0.740161 2.14346,-1.295304 3.37712,-1.665428 1.23364,-0.370066 2.45187,-0.555113 3.65469,-0.555143 1.35701,3e-5 2.66776,0.154236 3.93227,0.462619 1.29531,0.277601 2.43644,0.75564 3.42338,1.434119 0.9869,0.647694 1.77335,1.511249 2.35936,2.590667 0.6168,1.048628 0.92521,2.32854 0.92523,3.839738 l -4.8575,0 c -2e-5,-0.894374 -0.16964,-1.619143 -0.50888,-2.174309 -0.33927,-0.58596 -0.78647,-1.048578 -1.34159,-1.387858 -0.55516,-0.339228 -1.18741,-0.570537 -1.89674,-0.693928 -0.70937,-0.123339 -1.43414,-0.185022 -2.17431,-0.185048 -0.7402,2.6e-5 -1.44955,0.09255 -2.12805,0.277572 -0.67852,0.154232 -1.27992,0.416382 -1.80421,0.786452 -0.49347,0.339279 -0.89441,0.786477 -1.20281,1.341595 -0.30842,0.555167 -0.46263,1.233674 -0.46262,2.035524 -1e-5,1.202831 0.43177,2.097227 1.29533,2.683191 0.86355,0.586003 1.94299,1.064042 3.23833,1.4341195 1.29532,0.3701128 2.68318,0.7247871 4.16358,1.0640239 1.5112,0.3084292 2.91448,0.7710479 4.20983,1.3878573 1.29531,0.5859991 2.37476,1.4341332 3.23833,2.5444051 0.86353,1.0794564 1.29531,2.5752566 1.29534,4.48740531"
           id="path3010" />
        <path
           d="m 209.94895,7.9904709 -12.49071,-15.4052162 0,15.4052162 -4.76498,0 0,-29.7464079 4.76498,0 0,12.7220249 11.47295,-12.7220249 5.78274,0 -11.93557,12.9995963 13.36969,16.7468116 -6.1991,0"
           id="path3012" />
        <path
           d="m 247.09727,-7.2759595 c -3e-5,2.1589022 -0.29302,4.2098449 -0.87898,6.152834 -0.55517,1.91216621 -1.4033,3.5930139 -2.5444,5.0425483 -1.11031,1.4187012 -2.52901,2.5598272 -4.2561,3.4233813 -1.69629,0.8327142 -3.68555,1.249071 -5.96778,1.2490716 -2.31311,-6e-7 -4.33322,-0.4163574 -6.06031,-1.2490716 -1.72712,-0.8635541 -3.16124,-2.0201007 -4.30236,-3.4696432 -1.11029,-1.4803756 -1.95843,-3.17664392 -2.54441,-5.0888102 -0.55514,-1.9121478 -0.83271,-3.9322492 -0.83271,-6.0603102 0,-2.1588718 0.29299,-4.1481315 0.87897,-5.9677865 0.58598,-1.850453 1.44954,-3.438777 2.59067,-4.764977 1.14112,-1.356988 2.55982,-2.405591 4.2561,-3.14581 1.7271,-0.771002 3.73178,-1.156517 6.01405,-1.156547 2.31307,3e-5 4.31775,0.385545 6.01404,1.156547 1.72709,0.771061 3.14579,1.835083 4.2561,3.192072 1.1411,1.357041 1.98923,2.945365 2.5444,4.764977 0.55512,1.819654 0.83269,3.793494 0.83272,5.9215245 m -4.95003,0 c -2e-5,-1.6345706 -0.15423,-3.1303705 -0.46261,-4.4874055 -0.2776,-1.356995 -0.75564,-2.513541 -1.43412,-3.469643 -0.67853,-0.986897 -1.57293,-1.742507 -2.68319,-2.266834 -1.11031,-0.555117 -2.48274,-0.832688 -4.11731,-0.832714 -1.63461,2.6e-5 -3.02246,0.277597 -4.16358,0.832714 -1.11029,0.524327 -2.02011,1.279937 -2.72945,2.266834 -0.67852,0.956102 -1.17198,2.112648 -1.48038,3.469643 -0.27758,1.357035 -0.41636,2.8528349 -0.41636,4.4874055 0,1.6346011 0.13878,3.1766632 0.41636,4.626191 0.3084,1.4495491 0.80186,2.71404001 1.48038,3.7934767 0.70934,1.0486091 1.61916,1.8813226 2.72945,2.4981431 1.14112,0.6168292 2.52897,0.9252416 4.16358,0.9252382 1.63457,3.4e-6 3.007,-0.308409 4.11731,-0.9252382 1.11026,-0.6168205 2.00466,-1.449534 2.68319,-2.4981431 0.67848,-1.07943669 1.15652,-2.3439276 1.43412,-3.7934767 0.30838,-1.4495278 0.46259,-2.9915899 0.46261,-4.626191"
           id="path3014" />
      </g>
      <g
         transform="scale(1.2813536,0.78042471)"
         id="text3000-6"
         style="font-size:51.53463364px;font-style:normal;font-variant:normal;font-weight:normal;font-stretch:normal;text-align:start;line-height:125%;letter-spacing:0px;word-spacing:0px;writing-mode:lr-tb;text-anchor:start;fill:#000000;fill-opacity:1;stroke:none;display:inline;font-family:Padauk Book;-inkscape-font-specification:'Padauk Book,'">
        <path
           d="m 305.72408,-19.342628 0,28.032022 -5.23399,0 0,-28.032022 -10.21634,0 0,-4.328104 25.71699,0 0,4.328104 -10.26666,0"
           id="path3017" />
        <path
           d="m 320.57048,8.689394 0,-32.360126 20.43268,0 0,4.328104 -15.34967,0 0,9.310456 14.74574,0 0,4.1771235 -14.74574,0 0,10.2163385 15.80261,0 0,4.328104 -20.88562,0"
           id="path3019" />
        <path
           d="m 366.77047,8.689394 -13.68888,-26.270585 0,26.270585 -5.03268,0 0,-32.360126 7.34771,0 13.68889,26.3209111 0,-26.3209111 5.13333,0 0,32.360126 -7.44837,0"
           id="path3021" />
        <path
           d="m 410.05152,-7.9184469 c -3e-5,2.3485978 -0.31877,4.57975 -0.95621,6.6934631 -0.60395,2.08018189 -1.52661,3.9087201 -2.76798,5.4856202 -1.20787,1.5433578 -2.75122,2.7847507 -4.63006,3.7241825 -1.84534,0.9058821 -4.00939,1.3588227 -6.49216,1.3588234 -2.51635,-7e-7 -4.71395,-0.4529413 -6.59281,-1.3588234 -1.87887,-0.9394318 -3.439,-2.1976003 -4.68039,-3.7745093 -1.20784,-1.6104512 -2.1305,-3.455765 -2.76797,-5.5359469 -0.60392,-2.080162 -0.90589,-4.277763 -0.90588,-6.5928096 -10e-6,-2.3485651 0.31873,-4.5126141 0.95621,-6.4921561 0.63746,-2.013046 1.5769,-3.740931 2.8183,-5.183659 1.24138,-1.476223 2.78474,-2.616963 4.63006,-3.422222 1.87886,-0.838747 4.05968,-1.258137 6.54248,-1.25817 2.51632,3.3e-5 4.69715,0.419423 6.54249,1.25817 1.87884,0.838811 3.42219,1.996326 4.63006,3.472548 1.24137,1.47628 2.16402,3.204164 2.76798,5.18366 0.60388,1.979541 0.90585,4.126816 0.90588,6.4418291 m -5.38497,0 c -3e-5,-1.7781949 -0.16778,-3.4054261 -0.50327,-4.8816991 -0.30198,-1.476229 -0.82203,-2.734398 -1.56013,-3.774509 -0.73815,-1.073612 -1.71113,-1.895615 -2.91895,-2.466013 -1.20787,-0.603893 -2.70089,-0.905853 -4.47909,-0.905882 -1.77822,2.9e-5 -3.28803,0.301989 -4.52941,0.905882 -1.20785,0.570398 -2.19761,1.392401 -2.96928,2.466013 -0.73813,1.040111 -1.27495,2.29828 -1.61045,3.774509 -0.30197,1.476273 -0.45295,3.1035042 -0.45295,4.8816991 0,1.7782281 0.15098,3.4557861 0.45295,5.032679 0.3355,1.5769162 0.87232,2.95251372 1.61045,4.1267969 0.77167,1.1407469 1.76143,2.0466282 2.96928,2.7176467 1.24138,0.6710279 2.75119,1.0065395 4.52941,1.0065358 1.7782,3.7e-6 3.27122,-0.3355079 4.47909,-1.0065358 1.20782,-0.6710185 2.1808,-1.5768998 2.91895,-2.7176467 0.7381,-1.17428318 1.25815,-2.5498807 1.56013,-4.1267969 0.33549,-1.5768929 0.50324,-3.2544509 0.50327,-5.032679"
           id="path3023" />
        <path
           d="m 434.56066,8.689394 c -0.23488,-0.9394325 -0.41941,-1.7446603 -0.55359,-2.415686 -0.13423,-0.6710207 -0.25166,-1.2749416 -0.35229,-1.8117644 -0.0671,-0.5703655 -0.151,-1.1239597 -0.25164,-1.6607841 -0.0671,-0.5368127 -0.16777,-1.1575091 -0.30196,-1.86209126 -0.26843,-1.40914098 -0.55361,-2.53310484 -0.85555,-3.37189494 -0.30198,-0.8387679 -0.72137,-1.47624 -1.25817,-1.9124181 -0.50329,-0.4697032 -1.15753,-0.7716636 -1.96275,-0.9058822 -0.80524,-0.1677419 -1.84533,-0.2516198 -3.12026,-0.251634 l -4.52941,0 0,14.192155 -5.18366,0 0,-32.360126 10.97124,0 c 3.95903,3.2e-5 6.9283,0.671055 8.90784,2.013071 2.01305,1.342077 3.01959,3.60678 3.01961,6.794117 -2e-5,0.872354 -0.18456,1.677582 -0.55359,2.415686 -0.33554,0.738147 -0.80526,1.40917 -1.40915,2.013072 -0.5704,0.5703884 -1.24142,1.0904314 -2.01307,1.5601301 -0.73815,0.4697338 -1.50983,0.8723477 -2.31504,1.2078429 0.97297,0.2348745 1.82852,0.5871617 2.56667,1.0568626 0.77165,0.4697316 1.37557,1.2414083 1.81176,2.3150324 0.26839,0.6710362 0.4697,1.5265908 0.60393,2.5666663 0.16773,1.00654525 0.33548,2.11373354 0.50326,3.3215682 0.16773,1.1742977 0.36904,2.3821395 0.60393,3.6235289 0.23483,1.2413964 0.57034,2.3989115 1.00653,3.4725486 l -5.33464,0 m -0.70457,-23.20065 c -3e-5,-0.905859 -0.18456,-1.66076 -0.5536,-2.264706 -0.33553,-0.603895 -0.80525,-1.090387 -1.40915,-1.459477 -0.60394,-0.402587 -1.32529,-0.687772 -2.16405,-0.855555 -0.80525,-0.167728 -1.67758,-0.251606 -2.61699,-0.251634 l -5.73726,0 0,9.5620898 5.58628,0 c 0.93941,1.85e-5 1.82852,-0.083859 2.66732,-0.2516338 0.83876,-0.201288 1.56011,-0.486473 2.16405,-0.855556 0.63745,-0.369043 1.14072,-0.855535 1.5098,-1.459476 0.36904,-0.6039 0.55357,-1.32525 0.5536,-2.164052"
           id="path3025" />
        <path
           d="m 471.50052,-7.5158326 c -3e-5,2.2143928 -0.31876,4.3113403 -0.95621,6.2908488 -0.6375,1.94597724 -1.62726,3.6570864 -2.96928,5.1333327 -1.30852,1.4762558 -3.00285,2.6505464 -5.083,3.5228753 -2.04665,0.8387803 -4.49588,1.2581698 -7.34772,1.2581698 l -9.9647,0 0,-32.360126 9.9647,0 c 2.88539,3.2e-5 5.3514,0.436197 7.39804,1.308496 2.08015,0.83881 3.77449,1.996325 5.08301,3.472549 1.34202,1.442727 2.315,3.153836 2.91895,5.133332 0.63745,1.94599 0.95618,4.026162 0.95621,6.2405224 m -5.18366,0 c -2e-5,-3.8919184 -0.97301,-6.8276444 -2.91895,-8.8071884 -1.94599,-2.013045 -4.68041,-3.019579 -8.20327,-3.019607 l -4.83137,0 0,23.703918 4.83137,0 c 3.52286,4.3e-6 6.25728,-1.0065305 8.20327,-3.0196074 1.94594,-2.04661347 2.91893,-4.9991156 2.91895,-8.8575152"
           id="path3027" />
      </g>
      <g
         transform="matrix(0.84542949,0.42120795,-0.18932355,1.0885064,0,0)"
         id="text3000-6-7"
         style="font-size:46.45660019px;font-style:italic;font-variant:normal;font-weight:bold;font-stretch:normal;text-align:start;line-height:125%;letter-spacing:0px;word-spacing:0px;writing-mode:lr-tb;text-anchor:start;fill:#000000;fill-opacity:1;stroke:none;display:inline;font-family:Padauk Book;-inkscape-font-specification:'Padauk Book, Bold Italic'">
        <path
           d="m 366.60406,-129.60905 -6.57833,-23.31904 -4.67288,23.31904 -5.6256,0 5.85244,-29.17148 8.43841,0 6.53296,23.31903 4.67288,-23.31903 5.71634,0 -5.85245,29.17148 -8.48377,0"
           id="path3030" />
      </g>
    </g>
  </g>
</svg>
