<?xml version="1.0" encoding="UTF-8" standalone="no"?>
<!-- Created with Inkscape (http://www.inkscape.org/) -->

<svg
   xmlns:dc="http://purl.org/dc/elements/1.1/"
   xmlns:cc="http://creativecommons.org/ns#"
   xmlns:rdf="http://www.w3.org/1999/02/22-rdf-syntax-ns#"
   xmlns:svg="http://www.w3.org/2000/svg"
   xmlns="http://www.w3.org/2000/svg"
   xmlns:sodipodi="http://sodipodi.sourceforge.net/DTD/sodipodi-0.dtd"
   xmlns:inkscape="http://www.inkscape.org/namespaces/inkscape"
   id="svg3039"
   version="1.1"
   inkscape:version="0.48.4 r9939"
   width="640"
   height="351.91043"
   sodipodi:docname="logo.svg">
  <metadata
     id="metadata3045">
    <rdf:RDF>
      <cc:Work
         rdf:about="">
        <dc:format>image/svg+xml</dc:format>
        <dc:type
           rdf:resource="http://purl.org/dc/dcmitype/StillImage" />
        <dc:title />
      </cc:Work>
    </rdf:RDF>
  </metadata>
  <defs
     id="defs3043" />
  <sodipodi:namedview
     pagecolor="#ffffff"
     bordercolor="#666666"
     borderopacity="1"
     objecttolerance="10"
     gridtolerance="10"
     guidetolerance="10"
     inkscape:pageopacity="0"
     inkscape:pageshadow="2"
     inkscape:window-width="1366"
     inkscape:window-height="716"
     id="namedview3041"
     showgrid="false"
     inkscape:zoom="0.66"
     inkscape:cx="24.178911"
     inkscape:cy="33.4342"
     inkscape:window-x="0"
     inkscape:window-y="0"
     inkscape:window-maximized="1"
     inkscape:current-layer="layer3"
     fit-margin-top="0"
     fit-margin-left="0"
     fit-margin-right="0"
     fit-margin-bottom="0" />
  <g
     inkscape:groupmode="layer"
     id="layer3"
     inkscape:label="Capa 2"
     style="display:inline"
     transform="translate(-10.09375,300.78545)">
    <g
       id="g3000"
       transform="matrix(0.83333333,0,0,0.83333333,67.515626,-38.896904)">
      <path
         transform="translate(10.09375,-300.78545)"
         inkscape:connector-curvature="0"
         id="rect3049"
         d="m 12.116531,102.01226 0,46.84302 41.853916,0 0,132.76825 52.386583,0 0,-132.76825 80.38155,0 10.80992,-46.84302 -185.431969,0 z m 232.552259,0 -10.80991,46.84302 287.15626,0 0,-46.84302 -276.34635,0 z"
         style="opacity:0;fill:#0000ff;fill-rule:evenodd;stroke:#000000;stroke-width:0;stroke-linecap:butt;stroke-linejoin:miter;stroke-miterlimit:4;stroke-opacity:1;stroke-dasharray:none" />
      <rect
         transform="translate(10.09375,-300.78545)"
         y="355.19501"
         x="9.6901436"
         height="14.070433"
         width="33.477924"
         id="rect3841"
         style="opacity:0;stroke-width:0;stroke-miterlimit:4;stroke-dasharray:none" />
      <rect
         transform="translate(10.09375,-300.78545)"
         y="354.30551"
         x="5"
         height="0.48518732"
         width="0.4043228"
         id="rect3843"
         style="opacity:0;stroke-width:0;stroke-miterlimit:4;stroke-dasharray:none" />
      <rect
         transform="translate(10.09375,-300.78545)"
         y="354.79068"
         x="5"
         height="4.5284152"
         width="8.0864553"
         id="rect3845"
         style="opacity:0;stroke-width:0;stroke-miterlimit:4;stroke-dasharray:none" />
      <path
         inkscape:connector-curvature="0"
         id="rect3884"
         d="m 529.44577,-200.43629 c -8.86943,0 -17.45451,1.25719 -25.50035,3.60328 l -205.38879,0 0,43.79416 151.06197,0 -3.04897,12.75017 c -0.57011,2.06867 -0.99263,4.24608 -1.3859,6.37512 l -19.67961,85.0936 -1.66311,7.760965 -2.77174,11.918598 44.07127,0 25.22322,-105.604763 c 4.62702,-17.12795 20.82953,-29.93513 40.19081,-29.93513 22.9639,0 41.57665,17.98856 41.57665,39.91357 0,1.95604 -0.26142,3.68243 -0.55427,5.54357 l 0.27735,0 -16.63067,72.066222 -1.66307,7.761007 -2.49461,10.255524 44.34849,0 16.90779,-70.957463 0.55428,-1.9403 -0.27735,0 c 1.50206,-5.90546 2.49459,-11.93781 2.49459,-18.29371 0,-44.12901 -38.34409,-80.10442 -85.64801,-80.10442 z m -509.175724,3.60328 0,42.68545 44.625622,0 0,125.007163 52.386622,0 0,-125.007163 106.99066,0 0,-42.68545 -204.002904,0 z"
         style="fill:#000000;stroke-width:0;stroke-miterlimit:4;stroke-dasharray:none" />
      <g
         transform="matrix(8.8696895,0,0,8.8696895,-69.258411,-401.11306)"
         id="g3759">
        <path
           style="fill:#a2cd00;fill-opacity:1;stroke-width:0;stroke-miterlimit:4;stroke-dasharray:none"
           d="m 32.59375,14.25 -5.96875,25.84375 -0.1875,0.875 -0.25,0.96875 5.34375,0 0.40625,-1.75 1.625,-7 14.125,17.9375 0.1875,-0.0625 3.09375,-3.71875 L 38.09375,31 48.125,23.03125 l -8.53125,0 -4.53125,3.59375 2.84375,-12.375 -0.1875,0 z"
           id="rect3822"
           inkscape:connector-curvature="0"
           sodipodi:nodetypes="ccccccccccccccccc" />
        <path
           style="fill:#a2cd00;fill-opacity:1;stroke:none"
           d="m 41.290894,23.031 6.834106,0 0,4.938 -6.834106,0 z"
           id="rect2988"
           inkscape:connector-curvature="0"
           sodipodi:nodetypes="ccccc" />
      </g>
      <text
         transform="scale(1.1780439,0.8488648)"
         sodipodi:linespacing="125%"
         id="text3000"
         y="7.9904709"
         x="48.86499"
         style="font-size:47.3721962px;font-style:normal;font-variant:normal;font-weight:normal;font-stretch:normal;text-align:start;line-height:125%;letter-spacing:0px;word-spacing:0px;writing-mode:lr-tb;text-anchor:start;fill:#000000;fill-opacity:1;stroke:none;font-family:Padauk Book;-inkscape-font-specification:'Padauk Book,'"
         xml:space="preserve"><tspan
           y="7.9904709"
           x="48.86499"
           id="tspan3006"
           sodipodi:role="line">TRANSKO</tspan></text>
      <text
         transform="scale(1.2813536,0.78042471)"
         sodipodi:linespacing="125%"
         id="text3000-6"
         y="8.689394"
         x="289.21689"
         style="font-size:51.53463364px;font-style:normal;font-variant:normal;font-weight:normal;font-stretch:normal;text-align:start;line-height:125%;letter-spacing:0px;word-spacing:0px;writing-mode:lr-tb;text-anchor:start;fill:#000000;fill-opacity:1;stroke:none;display:inline;font-family:Padauk Book;-inkscape-font-specification:'Padauk Book,'"
         xml:space="preserve"><tspan
           y="8.689394"
           x="289.21689"
           id="tspan3029"
           sodipodi:role="line">TENORD</tspan></text>
      <text
         transform="matrix(0.84542949,0.42120795,-0.18932355,1.0885064,0,0)"
         sodipodi:linespacing="125%"
         id="text3000-6-7"
         y="-129.60905"
         x="346.86908"
         style="font-size:46.45660019px;font-style:italic;font-variant:normal;font-weight:bold;font-stretch:normal;text-align:start;line-height:125%;letter-spacing:0px;word-spacing:0px;writing-mode:lr-tb;text-anchor:start;fill:#000000;fill-opacity:1;stroke:none;display:inline;font-family:Padauk Book;-inkscape-font-specification:'Padauk Book, Bold Italic'"
         xml:space="preserve"><tspan
           y="-129.60905"
           x="346.86908"
           id="tspan3052"
           sodipodi:role="line">N</tspan></text>
    </g>
  </g>
</svg>
